<svg width="64" height="64" viewBox="0 0 64 64" fill="none" xmlns="http://www.w3.org/2000/svg">
<g id="Filled / Flame Icon">
<path id="Vector" d="M26.6076 7.11108C25.9418 9.46279 23.4117 16.126 18.6179 23.965C13.8241 31.804 12.6258 36.1155 12.2262 37.2913C11.6628 38.9491 11.5071 43.3274 13.4246 47.0901C15.0226 50.2257 19.4769 55.713 24.6103 55.713C21.4389 51.8236 21.4392 48.903 21.4394 47.131L21.4394 47.0901C21.4394 43.1706 25.2185 36.5074 25.8337 36.5074C26.4489 36.5074 28.472 40.8189 29.0046 42.3867C29.9367 41.6028 32 39.1111 32.6 34.5477C32.7331 32.5879 32.6249 26.7086 32.6249 26.7086C32.6249 25.9247 32.9994 25.7941 33.3989 25.9247C35.13 27.1006 38.5123 30.8633 41.3886 38.0752C44.2649 45.2871 38.2177 53.3613 36.9943 54.9291L35.4213 56.8889C37.6584 56.8889 41.2554 55.713 42.587 54.9291C48.9788 51.1664 49.7777 43.1706 49.7777 39.643C49.7777 37.2913 48.8989 31.1769 43.7855 23.965C38.6721 16.7531 30.203 9.72409 26.6076 7.11108Z" fill="#EA9A9A"/>
</g>
</svg>
