<svg width="27" height="27" viewBox="0 0 27 27" fill="none" xmlns="http://www.w3.org/2000/svg">
<path d="M3 8.16667C3 7.52233 3.52233 7 4.16667 7H21.8333C22.4777 7 23 7.52233 23 8.16667V8.16667C23 8.811 22.4777 9.33333 21.8333 9.33333H4.16667C3.52233 9.33333 3 8.811 3 8.16667V8.16667ZM3 14C3 13.3557 3.52233 12.8333 4.16667 12.8333H21.8333C22.4777 12.8333 23 13.3557 23 14V14C23 14.6443 22.4777 15.1667 21.8333 15.1667H4.16667C3.52233 15.1667 3 14.6443 3 14V14ZM3 19.8333C3 19.189 3.52233 18.6667 4.16667 18.6667H21.8333C22.4777 18.6667 23 19.189 23 19.8333V19.8333C23 20.4777 22.4777 21 21.8333 21H4.16667C3.52233 21 3 20.4777 3 19.8333V19.8333Z" fill="#868686"/>
</svg>
