<svg width="64" height="64" viewBox="0 0 64 64" fill="none" xmlns="http://www.w3.org/2000/svg">
<g id="Filled / Flip Icon">
<g id="Vector">
<path d="M0.7287 37.711H6.9713C9.69011 48.7191 19.7297 56.8889 31.6988 56.8889C40.5243 56.8889 48.3006 52.4471 52.8667 45.7009C53.5967 44.6223 53.1784 43.1883 52.0402 42.542C50.8578 41.8706 49.3583 42.3086 48.5749 43.4123C44.8476 48.6626 38.6785 52.0944 31.6988 52.0944C22.4281 52.0944 14.5873 46.0398 11.9993 37.711H19.0345C19.6824 37.711 20.0069 36.9363 19.5487 36.4833L11.3668 28.3921L10.3958 27.4319C10.1118 27.1511 9.65137 27.1511 9.36737 27.4319L6.27516 30.4898L0.214462 36.4833C-0.243675 36.9363 0.0807968 37.711 0.7287 37.711Z" fill="#EEEFB4"/>
<path d="M63.2713 26.289H57.0287C54.3099 15.2808 44.2703 7.11108 32.3011 7.11108C23.4757 7.11108 15.6993 11.5528 11.1333 18.2991C10.4033 19.3776 10.8216 20.8117 11.9597 21.4579C13.1422 22.1294 14.6416 21.6913 15.4251 20.5877C19.1524 15.3373 25.3215 11.9056 32.3011 11.9056C41.5719 11.9056 49.4127 17.9602 52.0007 26.289H44.9655C44.3176 26.289 43.9931 27.0636 44.4512 27.5167L52.6332 35.6079L53.6041 36.568C53.8881 36.8489 54.3486 36.8489 54.6326 36.568L57.7248 33.5101L63.7855 27.5167C64.2437 27.0636 63.9192 26.289 63.2713 26.289Z" fill="#EEEFB4"/>
</g>
</g>
</svg>
