<svg width="64" height="64" viewBox="0 0 64 64" fill="none" xmlns="http://www.w3.org/2000/svg">
<g id="Filled / Bot Icon">
<g id="Vector">
<path d="M13.6393 30.4197V40.6913C13.6393 42.4368 12.1779 43.8518 10.3752 43.8518C8.57248 43.8518 7.11108 42.4368 7.11108 40.6913V30.4197C7.11108 28.6742 8.57248 27.2592 10.3752 27.2592C12.1779 27.2592 13.6393 28.6742 13.6393 30.4197Z" fill="#9AA2EA"/>
<path d="M56.8889 30.8148V41.0864C56.8889 42.8319 55.4275 44.2469 53.6247 44.2469C51.822 44.2469 50.3606 42.8319 50.3606 41.0864V30.8148C50.3606 29.0693 51.822 27.6543 53.6247 27.6543C55.4275 27.6543 56.8889 29.0693 56.8889 30.8148Z" fill="#9AA2EA"/>
<path fill-rule="evenodd" clip-rule="evenodd" d="M47.9125 27.2592V41.8765C47.9125 46.2402 44.2591 49.7777 39.7523 49.7777H24.2477C19.7409 49.7777 16.0874 46.2402 16.0874 41.8765V27.2592C16.0874 18.7499 23.2117 11.8518 32 11.8518C40.7882 11.8518 47.9125 18.7499 47.9125 27.2592ZM33.224 16.5925H30.7759C25.3678 16.5925 20.9836 20.8376 20.9836 26.074V29.2345C20.9836 31.4164 22.8103 33.1851 25.0637 33.1851H38.9362C41.1896 33.1851 43.0164 31.4164 43.0164 29.2345V26.074C43.0164 20.8376 38.6322 16.5925 33.224 16.5925Z" fill="#9AA2EA"/>
<path d="M39.7523 26.074C39.7523 27.3831 38.8389 28.4444 37.7122 28.4444C36.5855 28.4444 35.6721 27.3831 35.6721 26.074C35.6721 24.7649 36.5855 23.7037 37.7122 23.7037C38.8389 23.7037 39.7523 24.7649 39.7523 26.074Z" fill="#9AA2EA"/>
<path d="M28.3278 26.074C28.3278 27.3831 27.4145 28.4444 26.2878 28.4444C25.1611 28.4444 24.2477 27.3831 24.2477 26.074C24.2477 24.7649 25.1611 23.7037 26.2878 23.7037C27.4145 23.7037 28.3278 24.7649 28.3278 26.074Z" fill="#9AA2EA"/>
</g>
</g>
</svg>
