<svg width="120" height="80" viewBox="0 0 120 80" fill="none" xmlns="http://www.w3.org/2000/svg">
<rect x="0.5" y="0.5" width="119" height="79" rx="7.5" fill="white"/>
<rect x="0.5" y="0.5" width="119" height="79" rx="7.5" stroke="#CCCCCC"/>
<path fill-rule="evenodd" clip-rule="evenodd" d="M22.9374 28L12 52.2041H25.0936L26.7168 48.345H30.4272L32.0504 52.2041H46.4628V49.2587L47.747 52.2041H55.2022L56.4865 49.1964V52.2041H86.4603L90.105 48.4452L93.5177 52.2041L108.913 52.2353L97.941 40.1696L108.913 28H93.7565L90.2086 31.6895L86.9033 28H54.2957L51.4957 34.2473L48.63 28H35.5637V30.8452L34.1102 28H22.9374ZM67.6972 31.437H84.9096L90.1741 37.1236L95.6083 31.437H100.873L92.8739 40.1662L100.873 48.7948H95.3695L90.105 43.0422L84.6431 48.7948H67.6972V31.437ZM71.9478 38.2036V35.03H82.6878L87.3741 40.1005L82.4801 45.1987H71.9478V41.7374H81.3379V38.2036H71.9478ZM25.471 31.437H31.8534L39.1082 47.85V31.437H46.0999L51.7034 43.205L56.8676 31.437H63.8244V48.8051H59.5913L59.5568 35.1956L53.3854 48.8051H49.5988L43.3929 35.1956V48.8051H34.6845L33.0336 44.9114H24.1142L22.4667 48.8017H17.8009L25.471 31.437ZM25.6372 41.3119L28.5758 34.3756L31.511 41.3119H25.6372Z" fill="#1F72CD"/>
</svg>
