<svg width="120" height="80" viewBox="0 0 120 80" fill="none" xmlns="http://www.w3.org/2000/svg">
<rect x="0.5" y="0.5" width="119" height="79" rx="7.5" fill="white"/>
<rect x="0.5" y="0.5" width="119" height="79" rx="7.5" stroke="#CCCCCC"/>
<path d="M65.0793 65.9656C79.1536 66.0336 92 54.3818 92 40.2077C92 24.7087 79.1536 13.9942 65.0793 14H52.9662C38.724 13.9942 27 24.7116 27 40.2077C27 54.3847 38.724 66.0336 52.9662 65.9656H65.0793Z" fill="#0079BE"/>
<path d="M53.0241 16.1478C40.0085 16.1521 29.4632 26.7972 29.4589 39.9357C29.4632 53.0729 40.0085 63.7179 53.0241 63.7223C66.0412 63.7179 76.5908 53.0729 76.5922 39.9357C76.5908 26.7972 66.0426 16.1521 53.0241 16.1478ZM38.0877 39.9357C38.085 36.898 38.9987 33.9301 40.7095 31.4199C42.4203 28.9097 44.8486 26.974 47.677 25.8657V54.0043C44.8484 52.8968 42.4198 50.9615 40.7089 48.4515C38.998 45.9414 38.0845 42.9734 38.0877 39.9357ZM58.3698 54.0101V25.8643C61.2003 26.9709 63.6306 28.9065 65.3427 31.4175C67.0547 33.9286 67.9687 36.8981 67.9648 39.9372C67.9681 42.9762 67.0539 45.9454 65.3419 48.4563C63.63 50.9673 61.1999 52.9029 58.3698 54.0101Z" fill="white"/>
</svg>
