<svg width="120" height="80" viewBox="0 0 120 80" fill="none" xmlns="http://www.w3.org/2000/svg">
<g clip-path="url(#clip0_2_7662)">
<rect width="120" height="80" rx="8" fill="white"/>
<path d="M54 80.205L119.965 61V71.855C119.965 76.4666 116.227 80.205 111.615 80.205H54Z" fill="#FD6020"/>
<path fill-rule="evenodd" clip-rule="evenodd" d="M102.635 32.3703C106.264 32.3703 108.26 33.9853 108.26 37.0359C108.441 39.3687 106.808 41.3427 104.631 41.7016L109.53 48.3411H105.719L101.546 41.881H101.183V48.3411H98.0983V32.3703H102.635ZM101.183 39.7276H102.09C104.086 39.7276 104.994 38.8304 104.994 37.2153C104.994 35.7798 104.086 34.8825 102.09 34.8825H101.183V39.7276ZM87.3925 48.3411H96.1023V45.6494H90.4772V41.3426H95.9209V38.6509H90.4772V35.062H96.1023V32.3702H87.3925V48.3411ZM78.3198 43.1371L74.1463 32.3702H70.8801L77.5939 48.7H79.227L85.9409 32.3702H82.6747L78.3198 43.1371ZM41.4844 40.4454C41.4844 44.9316 45.1135 48.7 49.6499 48.7C51.1015 48.7 52.3717 48.3411 53.6419 47.8028V44.2138C52.7346 45.2905 51.4644 46.0083 50.0128 46.0083C47.1095 46.0083 44.7506 43.8549 44.7506 40.9837V40.6249C44.5692 37.7537 46.9281 35.2414 49.8314 35.062C51.283 35.062 52.7346 35.7798 53.6419 36.8564V33.2675C52.5532 32.5497 51.1015 32.3702 49.8314 32.3702C45.1135 32.0113 41.4844 35.7798 41.4844 40.4454ZM35.8593 38.4715C34.0448 37.7537 33.5004 37.3948 33.5004 36.4975C33.6819 35.4209 34.5891 34.5236 35.6779 34.7031C36.5851 34.7031 37.4924 35.2414 38.2182 35.9592L39.8513 33.8058C38.5811 32.7291 36.948 32.0113 35.315 32.0113C32.7746 31.8319 30.5971 33.8058 30.4157 36.3181V36.4975C30.4157 38.6509 31.3229 39.9071 34.2262 40.8043C34.952 40.9837 35.6779 41.3426 36.4037 41.7015C36.948 42.0604 37.311 42.5988 37.311 43.3166C37.311 44.5727 36.2222 45.6494 35.1335 45.6494H34.952C33.5004 45.6494 32.2302 44.7522 31.6859 43.496L29.6899 45.4699C30.7786 47.4439 32.956 48.5206 35.1335 48.5206C38.0368 48.7 40.3957 46.5466 40.5771 43.6755V43.1371C40.3957 40.9837 39.4884 39.9071 35.8593 38.4715ZM25.3349 48.3411H28.4197V32.3702H25.3349V48.3411ZM11 32.3703H16.4436C20.7986 32.5497 24.2462 36.1387 24.0648 40.4454C24.0648 42.7782 22.976 44.9316 21.1615 46.5467C19.5284 47.8028 17.5324 48.5206 15.5364 48.3411H11V32.3703ZM14.992 45.6494C16.4436 45.8289 18.0767 45.2905 19.1654 44.3933C20.2542 43.3166 20.7985 41.881 20.7985 40.266C20.7985 38.8304 20.2542 37.3948 19.1654 36.3181C18.0767 35.4209 16.4436 34.8825 14.992 35.062H14.0847V45.6494H14.992Z" fill="black"/>
<path fill-rule="evenodd" clip-rule="evenodd" d="M62.8961 32C58.3597 32 54.5492 35.589 54.5492 40.2546C54.5492 44.7408 58.1783 48.5092 62.8961 48.6887C67.6139 48.8681 71.243 45.0997 71.4245 40.4341C71.243 35.7684 67.6139 32 62.8961 32Z" fill="#FD6020"/>
</g>
<rect x="0.5" y="0.5" width="119" height="79" rx="7.5" stroke="#CCCCCC"/>
<defs>
<clipPath id="clip0_2_7662">
<rect width="120" height="80" rx="8" fill="white"/>
</clipPath>
</defs>
</svg>
