<svg width="120" height="80" viewBox="0 0 120 80" fill="none" xmlns="http://www.w3.org/2000/svg">
<rect x="0.5" y="0.5" width="119" height="79" rx="7.5" fill="white"/>
<rect x="0.5" y="0.5" width="119" height="79" rx="7.5" stroke="#CCCCCC"/>
<path d="M75.6898 40.6735C77.4055 40.7108 79.1309 40.5978 80.8397 40.7323C82.5703 41.0551 82.9874 43.6749 81.4499 44.5329C80.4009 45.0982 79.1547 44.7435 78.0174 44.8432H75.6898V40.6735ZM81.8318 35.9541C82.2129 37.2995 80.9159 38.5075 79.6201 38.3222H75.6898C75.7174 37.0534 75.6359 35.6763 75.7297 34.4743C77.3042 34.5186 78.8932 34.3838 80.4586 34.5447C81.1312 34.7137 81.6941 35.2667 81.8318 35.9541ZM91.2905 16.0014C91.3636 18.5709 91.3011 21.2762 91.3221 23.8978C91.3172 34.5562 91.3323 45.2143 91.3137 55.8733C91.2447 59.8678 87.7046 63.3388 83.7378 63.4185C79.7671 63.4346 75.7958 63.421 71.8245 63.4254V47.3121C76.1514 47.2898 80.4805 47.3574 84.8056 47.2783C86.812 47.1523 89.0097 45.8285 89.1031 43.6205C89.3393 41.4029 87.2486 39.8691 85.2636 39.6269C84.5006 39.607 84.5229 39.4044 85.2636 39.316C87.1568 38.9069 88.6435 36.9474 88.0865 34.9851C87.6118 32.9211 85.3306 32.1222 83.4331 32.1262C79.5642 32.0999 75.6945 32.1225 71.8254 32.1149C71.8504 29.1067 71.7733 26.0954 71.867 23.0894C72.1735 19.167 75.8027 15.9323 79.7138 16.0025C83.5732 16.0019 87.432 16.0016 91.2905 16.0014Z" fill="url(#paint0_linear_2_7624)"/>
<path d="M28.1029 23.4957C28.2017 19.5075 31.7569 16.0651 35.7187 16.0068C39.6747 15.9946 43.6313 16.005 47.5873 16.0015C47.5765 29.3451 47.6088 42.6901 47.571 56.033C47.4186 59.9727 43.9022 63.3495 39.9836 63.4193C36.0201 63.4337 32.0561 63.4213 28.0925 63.4253V46.7688C31.9425 47.6783 35.9799 48.0655 39.9075 47.4622C42.2553 47.0844 44.8241 45.9314 45.6189 43.4957C46.2038 41.4122 45.8745 39.2195 45.9616 37.0811V32.115H39.1643C39.1338 35.3994 39.2269 38.6896 39.1152 41.9701C38.9319 43.9865 36.9351 45.2677 35.0333 45.1993C32.6748 45.2242 28.0012 43.49 28.0012 43.49C27.9894 37.3363 28.0696 29.629 28.1029 23.4957Z" fill="url(#paint1_linear_2_7624)"/>
<path d="M50.1222 34.1181C49.7644 34.194 50.0503 32.8994 49.9588 32.4083C49.9832 29.3031 49.9079 26.1945 50.0003 23.0915C50.306 19.1525 53.9631 15.9097 57.89 16.0019H69.4545C69.4436 29.3455 69.4758 42.6906 69.4382 56.0334C69.2857 59.9731 65.769 63.3498 61.8503 63.4197C57.8866 63.4347 53.9226 63.422 49.9586 63.4259V45.1763C52.6658 47.3976 56.3452 47.7433 59.7179 47.7493C62.2605 47.7485 64.7882 47.3564 67.2574 46.7701V43.4267C64.4748 44.8135 61.2037 45.6945 58.119 44.8977C55.9673 44.3621 54.4053 42.2825 54.4401 40.0619C54.1908 37.7526 55.5445 35.3146 57.8138 34.628C60.6314 33.7459 63.7022 34.4206 66.3433 35.5674C66.9091 35.8637 67.4835 36.2311 67.2572 35.2853V32.6574C62.8401 31.6065 58.1393 31.2198 53.7016 32.3631C52.4171 32.7254 51.1656 33.2747 50.1222 34.1181Z" fill="url(#paint2_linear_2_7624)"/>
<defs>
<linearGradient id="paint0_linear_2_7624" x1="27.5857" y1="38.699" x2="90.9115" y2="38.699" gradientUnits="userSpaceOnUse">
<stop stop-color="#58B03A"/>
<stop offset="1" stop-color="#55B330"/>
</linearGradient>
<linearGradient id="paint1_linear_2_7624" x1="26.9582" y1="40.1676" x2="90.2854" y2="40.1676" gradientUnits="userSpaceOnUse">
<stop stop-color="#0F6EB6"/>
<stop offset="1" stop-color="#006DBA"/>
</linearGradient>
<linearGradient id="paint2_linear_2_7624" x1="49.9301" y1="39.1593" x2="69.4509" y2="39.1593" gradientUnits="userSpaceOnUse">
<stop stop-color="#DE0D3D"/>
<stop offset="1" stop-color="#E30138"/>
</linearGradient>
</defs>
</svg>
