<svg width="120" height="80" viewBox="0 0 120 80" fill="none" xmlns="http://www.w3.org/2000/svg">
<rect x="0.5" y="0.5" width="119" height="79" rx="7.5" fill="white"/>
<rect x="0.5" y="0.5" width="119" height="79" rx="7.5" stroke="#CCCCCC"/>
<path d="M100 39.7211C100 53.3863 88.9442 64.4421 75.279 64.4421C69.5108 64.4421 64.2232 62.4507 60.0344 59.1545C65.8026 54.6224 69.4421 47.618 69.4421 39.7211C69.4421 31.8241 65.734 24.8198 60.0344 20.2876C64.2232 16.9914 69.5108 15 75.279 15C88.9442 15 100 26.1245 100 39.7211Z" fill="#F79E1B"/>
<path d="M60.0344 20.2876C60.0344 20.2876 60.0344 20.2876 60.0344 20.2876C65.734 24.8198 69.4421 31.8241 69.4421 39.7211C69.4421 47.618 65.8026 54.6224 60.0344 59.1545L59.9654 59.1545C54.266 54.691 50.5579 47.6181 50.5579 39.7212C50.5579 31.8242 54.2661 24.8199 59.9656 20.2877C59.9656 20.2877 59.9657 20.2878 59.9656 20.2877L60.0344 20.2876Z" fill="#FF5F00"/>
<path d="M50.5579 39.7212C50.5579 31.8242 54.2661 24.8199 59.9656 20.2877C55.7768 16.9916 50.4893 15.0001 44.721 15.0001C31.0558 15.0001 20 26.0559 20 39.7212C20 53.3864 31.0558 64.4422 44.721 64.4422C50.4893 64.4422 55.7766 62.4507 59.9654 59.1545C54.266 54.691 50.5579 47.6181 50.5579 39.7212Z" fill="#EB001B"/>
</svg>
