<svg width="120" height="80" viewBox="0 0 120 80" fill="none" xmlns="http://www.w3.org/2000/svg">
<rect x="0.5" y="0.5" width="119" height="79" rx="7.5" fill="white"/>
<rect x="0.5" y="0.5" width="119" height="79" rx="7.5" stroke="#CCCCCC"/>
<path d="M37.4547 17.0026H55.8774C58.449 17.0026 60.0485 19.0987 59.4486 21.6789L50.8715 58.5036C50.2662 61.0748 47.6914 63.1727 45.1179 63.1727H26.697C24.129 63.1727 22.5259 61.0748 23.1258 58.5036L31.7065 21.6789C32.3064 19.0987 34.8799 17.0026 37.4547 17.0026Z" fill="#E21836"/>
<path d="M54.3433 17H75.529C78.1002 17 76.9408 19.0961 76.3359 21.6763L67.7602 58.501C67.1585 61.0722 67.3462 63.1701 64.7696 63.1701H43.5839C41.0074 63.1701 39.4128 61.0722 40.0181 58.501L48.5934 21.6763C49.2023 19.0961 51.7704 17 54.3433 17Z" fill="#00447C"/>
<path d="M74.689 17H93.1117C95.687 17 97.2864 19.0961 96.6816 21.6763L88.1058 58.501C87.5005 61.0722 84.924 63.1701 82.3492 63.1701H63.935C61.3584 63.1701 59.7603 61.0722 60.3638 58.501L68.9409 21.6763C69.5408 19.0961 72.1124 17 74.689 17Z" fill="#007B84"/>
<path d="M42.2651 28.8012C40.3706 28.8205 39.8111 28.8012 39.6324 28.759C39.5637 29.0854 38.2853 34.9827 38.2817 34.9876C38.0064 36.1807 37.8061 37.0312 37.1259 37.5803C36.7397 37.8996 36.2888 38.0536 35.7662 38.0536C34.926 38.0536 34.4366 37.6365 34.3544 36.8453L34.3387 36.5736C34.3387 36.5736 34.5946 34.9755 34.5946 34.9665C34.5946 34.9665 35.9364 29.5924 36.1766 28.882C36.1892 28.8416 36.1928 28.8205 36.1959 28.8012C33.5843 28.8241 33.1213 28.8012 33.0895 28.759C33.0719 28.8169 33.0073 29.1501 33.0073 29.1501L31.6373 35.2072L31.5196 35.7209L31.292 37.4012C31.292 37.8996 31.3898 38.3064 31.5847 38.6504C32.2089 39.7411 33.9893 39.9046 34.9965 39.9046C36.2942 39.9046 37.5116 39.6289 38.3342 39.1255C39.7622 38.2817 40.1358 36.9629 40.4689 35.7909L40.6234 35.1897C40.6234 35.1897 42.0056 29.6081 42.2404 28.882C42.2494 28.8416 42.253 28.8205 42.2651 28.8012ZM46.9677 33.3039C46.6346 33.3039 46.0257 33.3847 45.4787 33.6528C45.2803 33.7547 45.0926 33.8724 44.8945 33.9896L45.0732 33.3443L44.9754 33.2356C43.8155 33.4705 43.556 33.5019 42.4845 33.6528L42.3947 33.7125C42.2704 34.7439 42.1599 35.5194 41.6987 37.5468C41.5232 38.294 41.3408 39.0484 41.1581 39.7938L41.2075 39.8886C42.3054 39.8307 42.6386 39.8307 43.5928 39.8464L43.67 39.7624C43.7912 39.1414 43.807 38.9959 44.0755 37.7381C44.2017 37.1418 44.4648 35.8315 44.5946 35.365C44.833 35.2545 45.0683 35.1458 45.2928 35.1458C45.8276 35.1458 45.7625 35.6124 45.7419 35.7983C45.719 36.1104 45.5241 37.1297 45.3243 38.0049L45.1909 38.5697C45.0979 38.9869 44.996 39.3924 44.9031 39.806L44.9435 39.8886C46.0257 39.8307 46.3557 39.8307 47.2798 39.8464L47.3885 39.7624C47.5555 38.7925 47.6045 38.5329 47.9008 37.1207L48.0499 36.4718C48.3396 35.202 48.485 34.558 48.2659 34.0336C48.0342 33.4458 47.4783 33.3039 46.9677 33.3039ZM52.2211 34.6334C51.6459 34.7439 51.2791 34.8175 50.9144 34.8651C50.553 34.9231 50.2005 34.9756 49.6446 35.0528L49.6005 35.0928L49.5601 35.1247C49.5022 35.5387 49.4618 35.8966 49.385 36.3173C49.3199 36.7524 49.2198 37.2468 49.0568 37.9572C48.9306 38.501 48.8655 38.6905 48.7936 38.8818C48.7236 39.0731 48.6463 39.259 48.5044 39.7938L48.5377 39.8432L48.5655 39.8885C49.085 39.8638 49.425 39.8463 49.7743 39.8432C50.1232 39.8306 50.4847 39.8432 51.0442 39.8463L51.0931 39.8064L51.1457 39.7624C51.2265 39.2801 51.2386 39.1503 51.288 38.915C51.337 38.6627 51.4214 38.3133 51.6284 37.3802C51.7263 36.9419 51.8354 36.505 51.9369 36.0578C52.0424 35.6123 52.1529 35.1736 52.258 34.7354L52.2422 34.6824L52.2211 34.6334ZM52.2334 32.8408C51.7107 32.5323 50.7933 32.6302 50.1759 33.0563C49.5603 33.4739 49.4902 34.0667 50.0111 34.3792C50.5248 34.6791 51.4458 34.5898 52.0578 34.1601C52.6721 33.7335 52.7489 33.1461 52.2334 32.8408ZM55.3944 39.9852C56.4519 39.9852 57.5359 39.6938 58.3518 38.8289C58.9795 38.1275 59.2673 37.084 59.367 36.6542C59.6917 35.2299 59.4389 34.5649 59.1214 34.1598C58.6391 33.5424 57.7869 33.3444 56.9027 33.3444C56.3711 33.3444 55.1048 33.3969 54.1155 34.3089C53.4052 34.9668 53.0769 35.8594 52.8789 36.7153C52.6791 37.5873 52.4492 39.1572 53.8928 39.7414C54.3383 39.9327 54.9804 39.9852 55.3944 39.9852ZM55.3118 36.7804C55.5556 35.7018 55.8434 34.7966 56.5781 34.7966C57.1537 34.7966 57.1955 35.4701 56.9395 36.5523C56.8937 36.7925 56.6836 37.6857 56.3993 38.066C56.2009 38.3467 55.966 38.5169 55.7065 38.5169C55.6292 38.5169 55.1699 38.5169 55.1627 37.8348C55.1591 37.498 55.2278 37.154 55.3118 36.7804ZM62.0105 39.8465L62.0931 39.7625C62.2103 39.1415 62.2297 38.9956 62.4892 37.7383C62.619 37.1419 62.8875 35.8316 63.0137 35.3651C63.2526 35.2542 63.4838 35.1455 63.7155 35.1455C64.2467 35.1455 64.1821 35.6121 64.161 35.798C64.1417 36.1105 63.9468 37.1294 63.7434 38.0045L63.6172 38.5694C63.5206 38.987 63.4156 39.3921 63.3226 39.8061L63.363 39.8887C64.4488 39.8308 64.7663 39.8308 65.6958 39.8465L65.808 39.7625C65.971 38.7922 66.015 38.5326 66.3204 37.1208L66.4659 36.4715C66.7569 35.2016 66.9041 34.5582 66.6886 34.0337C66.4502 33.4459 65.8907 33.304 65.3873 33.304C65.0537 33.304 64.4416 33.3844 63.8978 33.6529C63.7034 33.7548 63.5085 33.872 63.3172 33.9897L63.4838 33.3444L63.3945 33.2353C62.235 33.4706 61.9701 33.502 60.9001 33.6529L60.8179 33.7126C60.6881 34.7441 60.5826 35.5191 60.1214 37.547C59.9458 38.2942 59.7635 39.0486 59.5812 39.794L59.6302 39.8887C60.7299 39.8308 61.0581 39.8308 62.0105 39.8465ZM69.9879 39.8885C70.0562 39.5553 70.4616 37.5804 70.4652 37.5804C70.4652 37.5804 70.8106 36.1314 70.8317 36.0788C70.8317 36.0788 70.9403 35.928 71.049 35.8682H71.2088C72.7172 35.8682 74.4204 35.8682 75.7554 34.8862C76.6638 34.2126 77.2848 33.218 77.5618 32.0092C77.6337 31.7128 77.6867 31.3604 77.6867 31.0079C77.6867 30.5449 77.5937 30.0869 77.3252 29.729C76.6445 28.7766 75.2888 28.7591 73.7239 28.7519C73.719 28.7519 72.9525 28.7591 72.9525 28.7591C70.9493 28.7838 70.146 28.7766 69.8159 28.7362C69.7881 28.8821 69.7355 29.1417 69.7355 29.1417C69.7355 29.1417 69.018 32.4672 69.018 32.4726C69.018 32.4726 67.3009 39.5432 67.22 39.8764C68.969 39.8553 69.6862 39.8553 69.9879 39.8885ZM71.3175 33.9809C71.3175 33.9809 72.0804 30.6621 72.0768 30.6747L72.1015 30.5045L72.1123 30.3747L72.4172 30.4061C72.4172 30.4061 73.9906 30.5413 74.0275 30.5449C74.6485 30.7851 74.9044 31.4044 74.7257 32.2126C74.5627 32.9513 74.0836 33.5723 73.468 33.8723C72.961 34.1264 72.34 34.1475 71.7001 34.1475H71.2861L71.3175 33.9809ZM76.0676 36.8419C75.866 37.7014 75.6343 39.2712 77.0708 39.8307C77.5288 40.0256 77.9392 40.0835 78.3564 40.0624C78.7969 40.0386 79.2051 39.8177 79.5831 39.4998C79.549 39.6304 79.5149 39.7611 79.4808 39.8922L79.5459 39.9762C80.5791 39.9326 80.8997 39.9326 82.0192 39.9412L82.1207 39.8639C82.2841 38.903 82.4381 37.9699 82.8629 36.1315C83.0699 35.251 83.2765 34.3789 83.4889 33.5019L83.4556 33.4054C82.2998 33.6196 81.9909 33.6654 80.8791 33.823L80.7946 33.8917C80.7834 33.9811 80.7717 34.0668 80.761 34.1526C80.5881 33.8733 80.3375 33.6349 79.9509 33.4862C79.4565 33.2918 78.2953 33.5424 77.2971 34.4512C76.5957 35.1001 76.2589 35.9892 76.0676 36.8419ZM78.4951 36.8944C78.7425 35.8352 79.0268 34.9389 79.7632 34.9389C80.2289 34.9389 80.474 35.3686 80.4242 36.1014C80.3847 36.2842 80.342 36.4768 80.2913 36.6946C80.2176 37.0094 80.1377 37.3215 80.06 37.634C79.981 37.8477 79.8889 38.0494 79.7879 38.1836C79.5984 38.4521 79.1476 38.6187 78.888 38.6187C78.8144 38.6187 78.36 38.6187 78.3442 37.9488C78.3407 37.6151 78.4094 37.2716 78.4951 36.8944ZM91.1717 33.3968L91.0823 33.2949C89.9386 33.5266 89.7316 33.5634 88.6809 33.7053L88.6036 33.7826C88.6001 33.7951 88.5969 33.8144 88.5915 33.8319L88.5879 33.8144C87.8057 35.6191 87.8286 35.2298 87.1919 36.6506C87.1883 36.5859 87.1883 36.5455 87.1847 36.4768L87.0253 33.3968L86.9251 33.2949C85.7271 33.5266 85.6988 33.5634 84.5924 33.7053L84.5062 33.7826C84.494 33.8194 84.494 33.8598 84.4869 33.9038L84.494 33.9195C84.6324 34.6263 84.5991 34.4687 84.7379 35.5841C84.8025 36.1315 84.8888 36.682 84.9534 37.2226C85.0625 38.1274 85.1236 38.5729 85.257 39.9537C84.5098 41.1867 84.3328 41.6533 83.6135 42.7355L83.6184 42.7463L83.1119 43.5473C83.054 43.6318 83.0014 43.6897 82.9278 43.7144C82.847 43.7543 82.7419 43.7615 82.596 43.7615H82.3153L81.8982 45.1491L83.3292 45.1738C84.1694 45.1702 84.6975 44.7773 84.9817 44.2492L85.8816 42.7072H85.8672L85.962 42.5985C86.5673 41.2954 91.1717 33.3968 91.1717 33.3968ZM76.0676 51.6199H75.4605L77.7075 44.1879H78.4529L78.6895 43.4223L78.7124 44.2737C78.6846 44.7999 79.0986 45.2665 80.1862 45.1892H81.4439L81.8768 43.7582H81.4035C81.1314 43.7582 81.0052 43.6895 81.0209 43.5422L80.998 42.676H78.6689V42.6805C77.9158 42.6962 75.667 42.7528 75.2117 42.874C74.6607 43.0159 74.0801 43.4335 74.0801 43.4335L74.3082 42.667H72.1295L71.6755 44.1879L69.3985 51.7335H68.9566L68.5233 53.1543H72.8628L72.7173 53.628H74.8556L74.9975 53.1543H75.5974L76.0676 51.6199ZM74.2871 45.698C73.9382 45.7946 73.2889 46.0873 73.2889 46.0873L73.8664 44.1879H75.5974L75.1798 45.5718C75.1798 45.5718 74.645 45.6033 74.2871 45.698ZM74.3204 48.4115C74.3204 48.4115 73.7766 48.4798 73.4187 48.5606C73.0662 48.6675 72.4052 49.0043 72.4052 49.0043L73.0015 47.0276H74.7416L74.3204 48.4115ZM73.3504 51.6374H71.614L72.1174 49.9693H73.8484L73.3504 51.6374ZM77.5322 47.0276H80.0351L79.6754 48.1924H77.1392L76.7585 49.4659H78.9776L77.2973 51.8319C77.1797 52.0056 77.0741 52.0672 76.9569 52.1161C76.8393 52.1758 76.6848 52.2459 76.5061 52.2459H75.8905L75.4675 53.6406H77.0777C77.9147 53.6406 78.4091 53.2598 78.7742 52.76L79.9264 51.183L80.1739 52.7843C80.2264 53.0842 80.4419 53.2598 80.5879 53.3281C80.7491 53.4089 80.9157 53.5476 81.151 53.5683C81.4033 53.5791 81.5856 53.5876 81.7069 53.5876H82.4981L82.9732 52.0267H82.6611C82.4819 52.0267 82.1734 51.9967 82.1209 51.9405C82.0683 51.8723 82.0683 51.7672 82.0401 51.6073L81.789 50.0025H80.7612L81.212 49.4659H83.7433L84.1326 48.1924H81.789L82.1541 47.0276H84.4905L84.9238 45.5911H77.9583L77.5322 47.0276ZM56.3923 51.9618L56.9764 50.0183H59.3775L59.8162 48.5729H57.4129L57.7798 47.3766H60.1282L60.5634 45.977H54.6873L54.2611 47.3766H55.5961L55.24 48.5729H53.9014L53.4578 50.043H54.7923L54.0137 52.6142C53.9086 52.9546 54.0631 53.0844 54.161 53.2424C54.2611 53.3965 54.3626 53.4984 54.5907 53.5563C54.826 53.6088 54.9872 53.6403 55.2063 53.6403H57.9131L58.3954 52.039L57.1956 52.2038C56.9639 52.2038 56.3222 52.176 56.3923 51.9618ZM56.6676 42.6582L56.0592 43.7579C55.929 43.9982 55.8118 44.1473 55.7062 44.216C55.6133 44.2739 55.4292 44.2981 55.1625 44.2981H54.845L54.4207 45.705H55.475C55.982 45.705 56.3713 45.5191 56.5572 45.4261C56.757 45.3192 56.8095 45.3803 56.964 45.2312L57.3201 44.9227H60.6124L61.0494 43.458H58.6394L59.0601 42.6582H56.6676ZM61.5282 51.99C61.4721 51.9092 61.5125 51.7668 61.5983 51.4705L62.4981 48.492H65.6993C66.1659 48.4853 66.5027 48.4799 66.7218 48.4642C66.9571 48.4395 67.213 48.3555 67.4919 48.2046C67.7797 48.0466 67.927 47.88 68.0514 47.6887C68.1901 47.4978 68.4129 47.0802 68.6042 46.4363L69.7353 42.6671L66.4133 42.6864C66.4133 42.6864 65.3904 42.8373 64.94 43.0039C64.4856 43.1898 63.8363 43.7089 63.8363 43.7089L64.1362 42.6756H62.0841L59.2112 52.2038C59.1092 52.5738 59.041 52.8423 59.0253 53.0035C59.0199 53.1773 59.2444 53.3493 59.3899 53.479C59.5619 53.6088 59.816 53.5877 60.0599 53.6088C60.3163 53.6281 60.6809 53.6402 61.1842 53.6402H62.7613L63.2453 52.0057L61.8336 52.1391C61.6827 52.1391 61.5736 52.0583 61.5282 51.99ZM63.0787 46.4803H66.4411L66.2274 47.1503C66.1973 47.166 66.1255 47.1171 65.7833 47.1575H62.8717L63.0787 46.4803ZM63.7523 44.2333H67.143L66.8992 45.0403C66.8992 45.0403 65.301 45.0245 65.0451 45.0717C63.9189 45.2666 63.2611 45.8683 63.2611 45.8683L63.7523 44.2333ZM66.3027 49.3938C66.2748 49.4939 66.2308 49.555 66.1693 49.6008C66.101 49.6448 65.9906 49.6605 65.8258 49.6605H65.3467L65.3749 48.8446H63.3821L63.3013 52.8334C63.2981 53.1213 63.326 53.2879 63.5366 53.4212C63.7472 53.5878 64.396 53.6089 65.2694 53.6089H66.5182L66.969 52.1159L65.8819 52.1756L65.5204 52.1967C65.471 52.1756 65.4239 52.1563 65.3713 52.1038C65.3255 52.0584 65.2483 52.0863 65.2609 51.7984L65.2694 50.776L66.4095 50.7288C67.0252 50.7288 67.2883 50.5285 67.5128 50.3377C67.727 50.1549 67.7971 49.9448 67.8779 49.6605L68.0692 48.7553H66.5025L66.3027 49.3938Z" fill="#FEFEFE"/>
</svg>
