<svg width="120" height="80" viewBox="0 0 120 80" fill="none" xmlns="http://www.w3.org/2000/svg">
<rect x="0.5" y="0.5" width="119" height="79" rx="7.5" fill="white"/>
<rect x="0.5" y="0.5" width="119" height="79" rx="7.5" stroke="#CCCCCC"/>
<path d="M81.2466 26.2338C79.7686 25.6474 77.4244 25 74.5258 25C67.1261 25 61.9153 28.9459 61.8833 34.5874C61.8218 38.7497 65.6141 41.0615 68.4504 42.4493C71.3494 43.8675 72.3349 44.7931 72.3349 46.0572C72.3054 47.9986 69.9923 48.8935 67.835 48.8935C64.8434 48.8935 63.2404 48.4321 60.8044 47.352L59.8177 46.889L58.7692 53.3942C60.5266 54.1949 63.7645 54.9054 67.1261 54.9365C74.9884 54.9365 80.1071 51.0517 80.1677 45.0398C80.1976 41.7409 78.1952 39.2131 73.878 37.1475C71.2572 35.8216 69.6522 34.9275 69.6522 33.5708C69.683 32.3374 71.0097 31.0742 73.9682 31.0742C76.4041 31.0123 78.1939 31.5978 79.5498 32.1838L80.2275 32.4915L81.2466 26.2338Z" fill="#3362AB"/>
<path d="M54.0833 54.5047H46.5901L51.2769 25.5253H58.7696L54.0833 54.5047Z" fill="#3362AB"/>
<path fill-rule="evenodd" clip-rule="evenodd" d="M100.455 25.5253H94.659C92.8716 25.5253 91.5137 26.049 90.7426 27.9297L79.6125 54.5042H87.4748C87.4748 54.5042 88.7692 50.9275 89.0474 50.1572H98.668C98.8831 51.1746 99.5621 54.5042 99.5621 54.5042H106.5L100.455 25.5253ZM91.2056 44.2383C91.8227 42.5735 94.1972 36.1301 94.1972 36.1301C94.1847 36.1549 94.2812 35.8872 94.4252 35.488L94.427 35.4831L94.4282 35.4799C94.6432 34.8837 94.9625 33.9986 95.183 33.3557L95.7067 35.8527C95.7067 35.8527 97.1257 42.7894 97.4338 44.2383H91.2056Z" fill="#3362AB"/>
<path d="M40.3315 25.5253L32.9933 45.2865L32.1914 41.2787L32.1906 41.2762L29.5706 27.9613C29.1391 26.1104 27.8132 25.5864 26.1791 25.5253H14.1233L14 26.1108C16.9404 26.8627 19.5702 27.9462 21.8745 29.2934L28.5532 54.4739H36.477L48.2549 25.5253H40.3315Z" fill="#3362AB"/>
</svg>
